<?xml version="1.0" encoding="utf-8" standalone="no"?>
<!DOCTYPE svg PUBLIC "-//W3C//DTD SVG 1.1//EN"
  "http://www.w3.org/Graphics/SVG/1.1/DTD/svg11.dtd">
<svg xmlns:xlink="http://www.w3.org/1999/xlink" width="621.85125pt" height="408.051562pt" viewBox="0 0 621.85125 408.051562" xmlns="http://www.w3.org/2000/svg" version="1.1">
 <metadata>
  <rdf:RDF xmlns:dc="http://purl.org/dc/elements/1.1/" xmlns:cc="http://creativecommons.org/ns#" xmlns:rdf="http://www.w3.org/1999/02/22-rdf-syntax-ns#">
   <cc:Work>
    <dc:type rdf:resource="http://purl.org/dc/dcmitype/StillImage"/>
    <dc:date>2024-02-12T23:49:36.620239</dc:date>
    <dc:format>image/svg+xml</dc:format>
    <dc:creator>
     <cc:Agent>
      <dc:title>Matplotlib v3.7.2, https://matplotlib.org/</dc:title>
     </cc:Agent>
    </dc:creator>
   </cc:Work>
  </rdf:RDF>
 </metadata>
 <defs>
  <style type="text/css">*{stroke-linejoin: round; stroke-linecap: butt}</style>
 </defs>
 <g id="figure_1">
  <g id="patch_1">
   <path d="M 0 408.051562 
L 621.85125 408.051562 
L 621.85125 0 
L 0 0 
L 0 408.051562 
z
" style="fill: none"/>
  </g>
  <g id="axes_1">
   <g id="patch_2">
    <path d="M 59.825625 359.517187 
L 562.025625 359.517187 
L 562.025625 26.877187 
L 59.825625 26.877187 
L 59.825625 359.517187 
z
" style="fill: none"/>
   </g>
   <g id="matplotlib.axis_1">
    <g id="xtick_1">
     <g id="text_1">
      <!-- 18-24 -->
      <g style="fill: #262626" transform="translate(99.425642 376.935313) scale(0.12 -0.12)">
       <defs>
        <path id="DejaVuSerif-31" d="M 909 0 
L 909 331 
L 1722 331 
L 1722 4213 
L 781 3603 
L 781 4013 
L 1919 4750 
L 2350 4750 
L 2350 331 
L 3163 331 
L 3163 0 
L 909 0 
z
" transform="scale(0.015625)"/>
        <path id="DejaVuSerif-38" d="M 2981 1275 
Q 2981 1775 2732 2051 
Q 2484 2328 2034 2328 
Q 1584 2328 1336 2051 
Q 1088 1775 1088 1275 
Q 1088 772 1336 495 
Q 1584 219 2034 219 
Q 2484 219 2732 495 
Q 2981 772 2981 1275 
z
M 2853 3541 
Q 2853 3966 2637 4203 
Q 2422 4441 2034 4441 
Q 1650 4441 1433 4203 
Q 1216 3966 1216 3541 
Q 1216 3113 1433 2875 
Q 1650 2638 2034 2638 
Q 2422 2638 2637 2875 
Q 2853 3113 2853 3541 
z
M 2516 2484 
Q 3047 2413 3344 2092 
Q 3641 1772 3641 1275 
Q 3641 619 3225 264 
Q 2809 -91 2034 -91 
Q 1263 -91 845 264 
Q 428 619 428 1275 
Q 428 1772 725 2092 
Q 1022 2413 1556 2484 
Q 1084 2569 832 2842 
Q 581 3116 581 3541 
Q 581 4103 968 4426 
Q 1356 4750 2034 4750 
Q 2713 4750 3100 4426 
Q 3488 4103 3488 3541 
Q 3488 3116 3236 2842 
Q 2984 2569 2516 2484 
z
" transform="scale(0.015625)"/>
        <path id="DejaVuSerif-2d" d="M 281 1959 
L 1881 1959 
L 1881 1472 
L 281 1472 
L 281 1959 
z
" transform="scale(0.015625)"/>
        <path id="DejaVuSerif-32" d="M 819 3553 
L 469 3553 
L 469 4384 
Q 803 4563 1142 4656 
Q 1481 4750 1806 4750 
Q 2534 4750 2956 4397 
Q 3378 4044 3378 3438 
Q 3378 2753 2422 1800 
Q 2347 1728 2309 1691 
L 1131 513 
L 3078 513 
L 3078 1088 
L 3444 1088 
L 3444 0 
L 434 0 
L 434 341 
L 1850 1753 
Q 2319 2222 2519 2614 
Q 2719 3006 2719 3438 
Q 2719 3909 2473 4175 
Q 2228 4441 1797 4441 
Q 1350 4441 1106 4219 
Q 863 3997 819 3553 
z
" transform="scale(0.015625)"/>
        <path id="DejaVuSerif-34" d="M 2234 1581 
L 2234 4063 
L 641 1581 
L 2234 1581 
z
M 3609 0 
L 1484 0 
L 1484 331 
L 2234 331 
L 2234 1247 
L 197 1247 
L 197 1588 
L 2241 4750 
L 2859 4750 
L 2859 1581 
L 3750 1581 
L 3750 1247 
L 2859 1247 
L 2859 331 
L 3609 331 
L 3609 0 
z
" transform="scale(0.015625)"/>
       </defs>
       <use xlink:href="#DejaVuSerif-31"/>
       <use xlink:href="#DejaVuSerif-38" x="63.623047"/>
       <use xlink:href="#DejaVuSerif-2d" x="127.246094"/>
       <use xlink:href="#DejaVuSerif-32" x="161.035156"/>
       <use xlink:href="#DejaVuSerif-34" x="224.658203"/>
      </g>
     </g>
    </g>
    <g id="xtick_2">
     <g id="text_2">
      <!-- 25-34 -->
      <g style="fill: #262626" transform="translate(153.938532 376.935313) scale(0.12 -0.12)">
       <defs>
        <path id="DejaVuSerif-35" d="M 3219 4666 
L 3219 4153 
L 1081 4153 
L 1081 2816 
Q 1244 2928 1461 2984 
Q 1678 3041 1947 3041 
Q 2703 3041 3140 2622 
Q 3578 2203 3578 1478 
Q 3578 738 3136 323 
Q 2694 -91 1894 -91 
Q 1572 -91 1234 -12 
Q 897 66 544 225 
L 544 1131 
L 897 1131 
Q 925 688 1179 453 
Q 1434 219 1894 219 
Q 2388 219 2653 544 
Q 2919 869 2919 1478 
Q 2919 2084 2655 2407 
Q 2391 2731 1894 2731 
Q 1613 2731 1398 2631 
Q 1184 2531 1019 2322 
L 750 2322 
L 750 4666 
L 3219 4666 
z
" transform="scale(0.015625)"/>
        <path id="DejaVuSerif-33" d="M 622 4469 
Q 988 4606 1323 4678 
Q 1659 4750 1953 4750 
Q 2638 4750 3022 4454 
Q 3406 4159 3406 3634 
Q 3406 3213 3140 2930 
Q 2875 2647 2388 2547 
Q 2963 2466 3280 2130 
Q 3597 1794 3597 1259 
Q 3597 606 3158 257 
Q 2719 -91 1894 -91 
Q 1528 -91 1179 -12 
Q 831 66 488 225 
L 488 1131 
L 838 1131 
Q 869 681 1141 450 
Q 1413 219 1906 219 
Q 2384 219 2661 495 
Q 2938 772 2938 1253 
Q 2938 1803 2653 2086 
Q 2369 2369 1819 2369 
L 1522 2369 
L 1522 2688 
L 1678 2688 
Q 2225 2688 2498 2914 
Q 2772 3141 2772 3597 
Q 2772 4006 2547 4223 
Q 2322 4441 1900 4441 
Q 1478 4441 1245 4241 
Q 1013 4041 972 3647 
L 622 3647 
L 622 4469 
z
" transform="scale(0.015625)"/>
       </defs>
       <use xlink:href="#DejaVuSerif-32"/>
       <use xlink:href="#DejaVuSerif-35" x="63.623047"/>
       <use xlink:href="#DejaVuSerif-2d" x="127.246094"/>
       <use xlink:href="#DejaVuSerif-33" x="161.035156"/>
       <use xlink:href="#DejaVuSerif-34" x="224.658203"/>
      </g>
     </g>
    </g>
    <g id="xtick_3">
     <g id="text_3">
      <!-- 35-44 -->
      <g style="fill: #262626" transform="translate(222.079644 376.935313) scale(0.12 -0.12)">
       <use xlink:href="#DejaVuSerif-33"/>
       <use xlink:href="#DejaVuSerif-35" x="63.623047"/>
       <use xlink:href="#DejaVuSerif-2d" x="127.246094"/>
       <use xlink:href="#DejaVuSerif-34" x="161.035156"/>
       <use xlink:href="#DejaVuSerif-34" x="224.658203"/>
      </g>
     </g>
    </g>
    <g id="xtick_4">
     <g id="text_4">
      <!-- 45-54 -->
      <g style="fill: #262626" transform="translate(290.220757 376.935313) scale(0.12 -0.12)">
       <use xlink:href="#DejaVuSerif-34"/>
       <use xlink:href="#DejaVuSerif-35" x="63.623047"/>
       <use xlink:href="#DejaVuSerif-2d" x="127.246094"/>
       <use xlink:href="#DejaVuSerif-35" x="161.035156"/>
       <use xlink:href="#DejaVuSerif-34" x="224.658203"/>
      </g>
     </g>
    </g>
    <g id="xtick_5">
     <g id="text_5">
      <!-- 55-64 -->
      <g style="fill: #262626" transform="translate(358.361869 376.935313) scale(0.12 -0.12)">
       <defs>
        <path id="DejaVuSerif-36" d="M 2094 219 
Q 2534 219 2771 542 
Q 3009 866 3009 1472 
Q 3009 2078 2771 2401 
Q 2534 2725 2094 2725 
Q 1647 2725 1412 2412 
Q 1178 2100 1178 1509 
Q 1178 888 1415 553 
Q 1653 219 2094 219 
z
M 1075 2569 
Q 1288 2803 1556 2918 
Q 1825 3034 2163 3034 
Q 2859 3034 3264 2615 
Q 3669 2197 3669 1472 
Q 3669 763 3233 336 
Q 2797 -91 2069 -91 
Q 1278 -91 853 498 
Q 428 1088 428 2181 
Q 428 3406 931 4078 
Q 1434 4750 2350 4750 
Q 2597 4750 2869 4703 
Q 3141 4656 3425 4563 
L 3425 3794 
L 3072 3794 
Q 3034 4109 2831 4275 
Q 2628 4441 2284 4441 
Q 1678 4441 1381 3981 
Q 1084 3522 1075 2569 
z
" transform="scale(0.015625)"/>
       </defs>
       <use xlink:href="#DejaVuSerif-35"/>
       <use xlink:href="#DejaVuSerif-35" x="63.623047"/>
       <use xlink:href="#DejaVuSerif-2d" x="127.246094"/>
       <use xlink:href="#DejaVuSerif-36" x="161.035156"/>
       <use xlink:href="#DejaVuSerif-34" x="224.658203"/>
      </g>
     </g>
    </g>
    <g id="xtick_6">
     <g id="text_6">
      <!-- 65-74 -->
      <g style="fill: #262626" transform="translate(426.502982 376.935313) scale(0.12 -0.12)">
       <defs>
        <path id="DejaVuSerif-37" d="M 3609 4347 
L 1784 0 
L 1319 0 
L 3059 4153 
L 903 4153 
L 903 3578 
L 538 3578 
L 538 4666 
L 3609 4666 
L 3609 4347 
z
" transform="scale(0.015625)"/>
       </defs>
       <use xlink:href="#DejaVuSerif-36"/>
       <use xlink:href="#DejaVuSerif-35" x="63.623047"/>
       <use xlink:href="#DejaVuSerif-2d" x="127.246094"/>
       <use xlink:href="#DejaVuSerif-37" x="161.035156"/>
       <use xlink:href="#DejaVuSerif-34" x="224.658203"/>
      </g>
     </g>
    </g>
    <g id="xtick_7">
     <g id="text_7">
      <!-- 75+ -->
      <g style="fill: #262626" transform="translate(506.093206 376.935313) scale(0.12 -0.12)">
       <defs>
        <path id="DejaVuSerif-2b" d="M 2931 4013 
L 2931 2259 
L 4684 2259 
L 4684 1753 
L 2931 1753 
L 2931 0 
L 2431 0 
L 2431 1753 
L 678 1753 
L 678 2259 
L 2431 2259 
L 2431 4013 
L 2931 4013 
z
" transform="scale(0.015625)"/>
       </defs>
       <use xlink:href="#DejaVuSerif-37"/>
       <use xlink:href="#DejaVuSerif-35" x="63.623047"/>
       <use xlink:href="#DejaVuSerif-2b" x="127.246094"/>
      </g>
     </g>
    </g>
    <g id="text_8">
     <!-- Age-Group -->
     <g style="fill: #262626" transform="translate(261.827812 396.852188) scale(0.18 -0.18)">
      <defs>
       <path id="DejaVuSerif-41" d="M 1281 1691 
L 2994 1691 
L 2138 3909 
L 1281 1691 
z
M -38 0 
L -38 331 
L 372 331 
L 2034 4666 
L 2559 4666 
L 4225 331 
L 4684 331 
L 4684 0 
L 2988 0 
L 2988 331 
L 3506 331 
L 3116 1356 
L 1153 1356 
L 763 331 
L 1275 331 
L 1275 0 
L -38 0 
z
" transform="scale(0.015625)"/>
       <path id="DejaVuSerif-67" d="M 3359 2988 
L 3359 72 
Q 3359 -644 2965 -1033 
Q 2572 -1422 1844 -1422 
Q 1516 -1422 1216 -1362 
Q 916 -1303 641 -1184 
L 641 -488 
L 941 -488 
Q 997 -813 1206 -963 
Q 1416 -1113 1806 -1113 
Q 2313 -1113 2548 -827 
Q 2784 -541 2784 72 
L 2784 519 
Q 2616 206 2355 57 
Q 2094 -91 1709 -91 
Q 1097 -91 708 395 
Q 319 881 319 1663 
Q 319 2444 706 2928 
Q 1094 3413 1709 3413 
Q 2094 3413 2355 3264 
Q 2616 3116 2784 2803 
L 2784 3322 
L 3909 3322 
L 3909 2988 
L 3359 2988 
z
M 2784 1825 
Q 2784 2422 2554 2737 
Q 2325 3053 1888 3053 
Q 1444 3053 1217 2703 
Q 991 2353 991 1663 
Q 991 975 1217 622 
Q 1444 269 1888 269 
Q 2325 269 2554 583 
Q 2784 897 2784 1497 
L 2784 1825 
z
" transform="scale(0.015625)"/>
       <path id="DejaVuSerif-65" d="M 3469 1600 
L 991 1600 
L 991 1575 
Q 991 903 1244 561 
Q 1497 219 1991 219 
Q 2369 219 2611 417 
Q 2853 616 2950 1006 
L 3413 1006 
Q 3275 459 2904 184 
Q 2534 -91 1931 -91 
Q 1203 -91 761 389 
Q 319 869 319 1663 
Q 319 2450 753 2931 
Q 1188 3413 1894 3413 
Q 2647 3413 3050 2948 
Q 3453 2484 3469 1600 
z
M 2791 1931 
Q 2772 2513 2545 2808 
Q 2319 3103 1894 3103 
Q 1497 3103 1269 2806 
Q 1041 2509 991 1931 
L 2791 1931 
z
" transform="scale(0.015625)"/>
       <path id="DejaVuSerif-47" d="M 4097 3272 
Q 3988 3856 3641 4136 
Q 3294 4416 2675 4416 
Q 1869 4416 1472 3897 
Q 1075 3378 1075 2328 
Q 1075 1300 1484 772 
Q 1894 244 2688 244 
Q 3041 244 3362 331 
Q 3684 419 3975 594 
L 3975 1797 
L 3097 1797 
L 3097 2131 
L 4609 2131 
L 4609 391 
Q 4194 150 3714 29 
Q 3234 -91 2688 -91 
Q 1631 -91 995 570 
Q 359 1231 359 2328 
Q 359 3434 996 4092 
Q 1634 4750 2713 4750 
Q 3113 4750 3539 4658 
Q 3966 4566 4447 4378 
L 4447 3272 
L 4097 3272 
z
" transform="scale(0.015625)"/>
       <path id="DejaVuSerif-72" d="M 3059 3328 
L 3059 2497 
L 2728 2497 
Q 2713 2744 2591 2866 
Q 2469 2988 2234 2988 
Q 1809 2988 1582 2694 
Q 1356 2400 1356 1850 
L 1356 331 
L 2022 331 
L 2022 0 
L 263 0 
L 263 331 
L 781 331 
L 781 2994 
L 231 2994 
L 231 3322 
L 1356 3322 
L 1356 2731 
Q 1525 3078 1790 3245 
Q 2056 3413 2438 3413 
Q 2578 3413 2733 3391 
Q 2888 3369 3059 3328 
z
" transform="scale(0.015625)"/>
       <path id="DejaVuSerif-6f" d="M 1925 219 
Q 2388 219 2623 584 
Q 2859 950 2859 1663 
Q 2859 2375 2623 2739 
Q 2388 3103 1925 3103 
Q 1463 3103 1227 2739 
Q 991 2375 991 1663 
Q 991 950 1228 584 
Q 1466 219 1925 219 
z
M 1925 -91 
Q 1200 -91 759 389 
Q 319 869 319 1663 
Q 319 2456 758 2934 
Q 1197 3413 1925 3413 
Q 2653 3413 3092 2934 
Q 3531 2456 3531 1663 
Q 3531 869 3092 389 
Q 2653 -91 1925 -91 
z
" transform="scale(0.015625)"/>
       <path id="DejaVuSerif-75" d="M 2266 3322 
L 3341 3322 
L 3341 331 
L 3884 331 
L 3884 0 
L 2766 0 
L 2766 588 
Q 2606 256 2353 82 
Q 2100 -91 1766 -91 
Q 1213 -91 952 223 
Q 691 538 691 1209 
L 691 2988 
L 172 2988 
L 172 3322 
L 1269 3322 
L 1269 1388 
Q 1269 781 1417 556 
Q 1566 331 1947 331 
Q 2347 331 2556 625 
Q 2766 919 2766 1478 
L 2766 2988 
L 2266 2988 
L 2266 3322 
z
" transform="scale(0.015625)"/>
       <path id="DejaVuSerif-70" d="M 1313 1825 
L 1313 1497 
Q 1313 897 1542 583 
Q 1772 269 2209 269 
Q 2650 269 2876 622 
Q 3103 975 3103 1663 
Q 3103 2353 2876 2703 
Q 2650 3053 2209 3053 
Q 1772 3053 1542 2737 
Q 1313 2422 1313 1825 
z
M 738 2988 
L 184 2988 
L 184 3322 
L 1313 3322 
L 1313 2803 
Q 1481 3116 1742 3264 
Q 2003 3413 2388 3413 
Q 3000 3413 3387 2928 
Q 3775 2444 3775 1663 
Q 3775 881 3387 395 
Q 3000 -91 2388 -91 
Q 2003 -91 1742 57 
Q 1481 206 1313 519 
L 1313 -997 
L 1856 -997 
L 1856 -1331 
L 184 -1331 
L 184 -997 
L 738 -997 
L 738 2988 
z
" transform="scale(0.015625)"/>
      </defs>
      <use xlink:href="#DejaVuSerif-41"/>
      <use xlink:href="#DejaVuSerif-67" x="72.216797"/>
      <use xlink:href="#DejaVuSerif-65" x="136.230469"/>
      <use xlink:href="#DejaVuSerif-2d" x="195.410156"/>
      <use xlink:href="#DejaVuSerif-47" x="229.199219"/>
      <use xlink:href="#DejaVuSerif-72" x="309.082031"/>
      <use xlink:href="#DejaVuSerif-6f" x="356.884766"/>
      <use xlink:href="#DejaVuSerif-75" x="417.089844"/>
      <use xlink:href="#DejaVuSerif-70" x="481.494141"/>
     </g>
    </g>
   </g>
   <g id="matplotlib.axis_2">
    <g id="ytick_1">
     <g id="line2d_1">
      <defs>
       <path id="m74a69cd032" d="M 0 0 
L -4.8 0 
" style="stroke: #262626"/>
      </defs>
      <g>
       <use xlink:href="#m74a69cd032" x="59.825625" y="359.517187" style="fill: #262626; stroke: #262626"/>
      </g>
     </g>
     <g id="text_9">
      <!-- 0 -->
      <g style="fill: #262626" transform="translate(43.890625 364.07625) scale(0.12 -0.12)">
       <defs>
        <path id="DejaVuSerif-30" d="M 2034 219 
Q 2513 219 2750 744 
Q 2988 1269 2988 2328 
Q 2988 3391 2750 3916 
Q 2513 4441 2034 4441 
Q 1556 4441 1318 3916 
Q 1081 3391 1081 2328 
Q 1081 1269 1318 744 
Q 1556 219 2034 219 
z
M 2034 -91 
Q 1275 -91 848 546 
Q 422 1184 422 2328 
Q 422 3475 848 4112 
Q 1275 4750 2034 4750 
Q 2797 4750 3222 4112 
Q 3647 3475 3647 2328 
Q 3647 1184 3222 546 
Q 2797 -91 2034 -91 
z
" transform="scale(0.015625)"/>
       </defs>
       <use xlink:href="#DejaVuSerif-30"/>
      </g>
     </g>
    </g>
    <g id="ytick_2">
     <g id="line2d_2">
      <g>
       <use xlink:href="#m74a69cd032" x="59.825625" y="299.037187" style="fill: #262626; stroke: #262626"/>
      </g>
     </g>
     <g id="text_10">
      <!-- 20 -->
      <g style="fill: #262626" transform="translate(36.255625 303.59625) scale(0.12 -0.12)">
       <use xlink:href="#DejaVuSerif-32"/>
       <use xlink:href="#DejaVuSerif-30" x="63.623047"/>
      </g>
     </g>
    </g>
    <g id="ytick_3">
     <g id="line2d_3">
      <g>
       <use xlink:href="#m74a69cd032" x="59.825625" y="238.557187" style="fill: #262626; stroke: #262626"/>
      </g>
     </g>
     <g id="text_11">
      <!-- 40 -->
      <g style="fill: #262626" transform="translate(36.255625 243.11625) scale(0.12 -0.12)">
       <use xlink:href="#DejaVuSerif-34"/>
       <use xlink:href="#DejaVuSerif-30" x="63.623047"/>
      </g>
     </g>
    </g>
    <g id="ytick_4">
     <g id="line2d_4">
      <g>
       <use xlink:href="#m74a69cd032" x="59.825625" y="178.077188" style="fill: #262626; stroke: #262626"/>
      </g>
     </g>
     <g id="text_12">
      <!-- 60 -->
      <g style="fill: #262626" transform="translate(36.255625 182.63625) scale(0.12 -0.12)">
       <use xlink:href="#DejaVuSerif-36"/>
       <use xlink:href="#DejaVuSerif-30" x="63.623047"/>
      </g>
     </g>
    </g>
    <g id="ytick_5">
     <g id="line2d_5">
      <g>
       <use xlink:href="#m74a69cd032" x="59.825625" y="117.597188" style="fill: #262626; stroke: #262626"/>
      </g>
     </g>
     <g id="text_13">
      <!-- 80 -->
      <g style="fill: #262626" transform="translate(36.255625 122.15625) scale(0.12 -0.12)">
       <use xlink:href="#DejaVuSerif-38"/>
       <use xlink:href="#DejaVuSerif-30" x="63.623047"/>
      </g>
     </g>
    </g>
    <g id="ytick_6">
     <g id="line2d_6">
      <g>
       <use xlink:href="#m74a69cd032" x="59.825625" y="57.117188" style="fill: #262626; stroke: #262626"/>
      </g>
     </g>
     <g id="text_14">
      <!-- 100 -->
      <g style="fill: #262626" transform="translate(28.620625 61.67625) scale(0.12 -0.12)">
       <use xlink:href="#DejaVuSerif-31"/>
       <use xlink:href="#DejaVuSerif-30" x="63.623047"/>
       <use xlink:href="#DejaVuSerif-30" x="127.246094"/>
      </g>
     </g>
    </g>
    <g id="text_15">
     <!-- Population (millions) -->
     <g style="fill: #262626" transform="translate(20.877188 287.588906) rotate(-90) scale(0.18 -0.18)">
      <defs>
       <path id="DejaVuSerif-50" d="M 1581 2375 
L 2406 2375 
Q 2872 2375 3115 2626 
Q 3359 2878 3359 3353 
Q 3359 3831 3115 4081 
Q 2872 4331 2406 4331 
L 1581 4331 
L 1581 2375 
z
M 353 0 
L 353 331 
L 947 331 
L 947 4331 
L 353 4331 
L 353 4666 
L 2559 4666 
Q 3259 4666 3668 4311 
Q 4078 3956 4078 3353 
Q 4078 2753 3668 2397 
Q 3259 2041 2559 2041 
L 1581 2041 
L 1581 331 
L 2303 331 
L 2303 0 
L 353 0 
z
" transform="scale(0.015625)"/>
       <path id="DejaVuSerif-6c" d="M 1313 331 
L 1856 331 
L 1856 0 
L 184 0 
L 184 331 
L 738 331 
L 738 4531 
L 184 4531 
L 184 4863 
L 1313 4863 
L 1313 331 
z
" transform="scale(0.015625)"/>
       <path id="DejaVuSerif-61" d="M 2547 1044 
L 2547 1747 
L 1806 1747 
Q 1378 1747 1168 1562 
Q 959 1378 959 997 
Q 959 650 1171 447 
Q 1384 244 1747 244 
Q 2106 244 2326 466 
Q 2547 688 2547 1044 
z
M 3122 2075 
L 3122 331 
L 3634 331 
L 3634 0 
L 2547 0 
L 2547 359 
Q 2356 128 2106 18 
Q 1856 -91 1522 -91 
Q 969 -91 644 203 
Q 319 497 319 997 
Q 319 1513 691 1797 
Q 1063 2081 1741 2081 
L 2547 2081 
L 2547 2309 
Q 2547 2688 2317 2895 
Q 2088 3103 1672 3103 
Q 1328 3103 1125 2947 
Q 922 2791 872 2484 
L 575 2484 
L 575 3156 
Q 875 3284 1158 3348 
Q 1441 3413 1709 3413 
Q 2400 3413 2761 3070 
Q 3122 2728 3122 2075 
z
" transform="scale(0.015625)"/>
       <path id="DejaVuSerif-74" d="M 691 2988 
L 184 2988 
L 184 3322 
L 691 3322 
L 691 4353 
L 1269 4353 
L 1269 3322 
L 2350 3322 
L 2350 2988 
L 1269 2988 
L 1269 878 
Q 1269 456 1350 337 
Q 1431 219 1650 219 
Q 1875 219 1978 351 
Q 2081 484 2088 781 
L 2522 781 
Q 2497 328 2275 118 
Q 2053 -91 1600 -91 
Q 1103 -91 897 129 
Q 691 350 691 878 
L 691 2988 
z
" transform="scale(0.015625)"/>
       <path id="DejaVuSerif-69" d="M 622 4353 
Q 622 4497 726 4603 
Q 831 4709 978 4709 
Q 1122 4709 1226 4603 
Q 1331 4497 1331 4353 
Q 1331 4206 1228 4103 
Q 1125 4000 978 4000 
Q 831 4000 726 4103 
Q 622 4206 622 4353 
z
M 1356 331 
L 1900 331 
L 1900 0 
L 231 0 
L 231 331 
L 781 331 
L 781 2988 
L 231 2988 
L 231 3322 
L 1356 3322 
L 1356 331 
z
" transform="scale(0.015625)"/>
       <path id="DejaVuSerif-6e" d="M 263 0 
L 263 331 
L 781 331 
L 781 2988 
L 231 2988 
L 231 3322 
L 1356 3322 
L 1356 2731 
Q 1516 3069 1770 3241 
Q 2025 3413 2363 3413 
Q 2913 3413 3172 3097 
Q 3431 2781 3431 2113 
L 3431 331 
L 3944 331 
L 3944 0 
L 2356 0 
L 2356 331 
L 2853 331 
L 2853 1931 
Q 2853 2541 2703 2767 
Q 2553 2994 2175 2994 
Q 1775 2994 1565 2701 
Q 1356 2409 1356 1850 
L 1356 331 
L 1856 331 
L 1856 0 
L 263 0 
z
" transform="scale(0.015625)"/>
       <path id="DejaVuSerif-20" transform="scale(0.015625)"/>
       <path id="DejaVuSerif-28" d="M 2041 -997 
Q 1281 -656 893 83 
Q 506 822 506 1931 
Q 506 3044 893 3783 
Q 1281 4522 2041 4863 
L 2041 4556 
Q 1559 4225 1350 3623 
Q 1141 3022 1141 1931 
Q 1141 844 1350 242 
Q 1559 -359 2041 -691 
L 2041 -997 
z
" transform="scale(0.015625)"/>
       <path id="DejaVuSerif-6d" d="M 3316 2675 
Q 3481 3041 3739 3227 
Q 3997 3413 4341 3413 
Q 4863 3413 5119 3089 
Q 5375 2766 5375 2113 
L 5375 331 
L 5894 331 
L 5894 0 
L 4300 0 
L 4300 331 
L 4800 331 
L 4800 2047 
Q 4800 2556 4650 2772 
Q 4500 2988 4153 2988 
Q 3769 2988 3567 2697 
Q 3366 2406 3366 1850 
L 3366 331 
L 3866 331 
L 3866 0 
L 2291 0 
L 2291 331 
L 2791 331 
L 2791 2069 
Q 2791 2566 2641 2777 
Q 2491 2988 2144 2988 
Q 1759 2988 1557 2697 
Q 1356 2406 1356 1850 
L 1356 331 
L 1856 331 
L 1856 0 
L 263 0 
L 263 331 
L 781 331 
L 781 2994 
L 231 2994 
L 231 3322 
L 1356 3322 
L 1356 2731 
Q 1516 3063 1762 3238 
Q 2009 3413 2322 3413 
Q 2709 3413 2968 3220 
Q 3228 3028 3316 2675 
z
" transform="scale(0.015625)"/>
       <path id="DejaVuSerif-73" d="M 359 184 
L 359 959 
L 691 959 
Q 703 588 923 403 
Q 1144 219 1575 219 
Q 1963 219 2166 364 
Q 2369 509 2369 788 
Q 2369 1006 2220 1140 
Q 2072 1275 1594 1428 
L 1178 1569 
Q 750 1706 558 1912 
Q 366 2119 366 2438 
Q 366 2894 700 3153 
Q 1034 3413 1625 3413 
Q 1888 3413 2178 3344 
Q 2469 3275 2778 3144 
L 2778 2419 
L 2447 2419 
Q 2434 2741 2221 2922 
Q 2009 3103 1644 3103 
Q 1281 3103 1095 2975 
Q 909 2847 909 2591 
Q 909 2381 1050 2254 
Q 1191 2128 1613 1997 
L 2069 1856 
Q 2541 1709 2748 1489 
Q 2956 1269 2956 922 
Q 2956 450 2595 179 
Q 2234 -91 1600 -91 
Q 1278 -91 972 -22 
Q 666 47 359 184 
z
" transform="scale(0.015625)"/>
       <path id="DejaVuSerif-29" d="M 453 -997 
L 453 -691 
Q 934 -359 1145 242 
Q 1356 844 1356 1931 
Q 1356 3022 1145 3623 
Q 934 4225 453 4556 
L 453 4863 
Q 1216 4522 1603 3783 
Q 1991 3044 1991 1931 
Q 1991 822 1603 83 
Q 1216 -656 453 -997 
z
" transform="scale(0.015625)"/>
      </defs>
      <use xlink:href="#DejaVuSerif-50"/>
      <use xlink:href="#DejaVuSerif-6f" x="63.285156"/>
      <use xlink:href="#DejaVuSerif-70" x="123.490234"/>
      <use xlink:href="#DejaVuSerif-75" x="187.503906"/>
      <use xlink:href="#DejaVuSerif-6c" x="251.908203"/>
      <use xlink:href="#DejaVuSerif-61" x="283.890625"/>
      <use xlink:href="#DejaVuSerif-74" x="343.509766"/>
      <use xlink:href="#DejaVuSerif-69" x="383.695312"/>
      <use xlink:href="#DejaVuSerif-6f" x="415.677734"/>
      <use xlink:href="#DejaVuSerif-6e" x="475.882812"/>
      <use xlink:href="#DejaVuSerif-20" x="540.287109"/>
      <use xlink:href="#DejaVuSerif-28" x="572.074219"/>
      <use xlink:href="#DejaVuSerif-6d" x="611.087891"/>
      <use xlink:href="#DejaVuSerif-69" x="705.912109"/>
      <use xlink:href="#DejaVuSerif-6c" x="737.894531"/>
      <use xlink:href="#DejaVuSerif-6c" x="769.876953"/>
      <use xlink:href="#DejaVuSerif-69" x="801.859375"/>
      <use xlink:href="#DejaVuSerif-6f" x="833.841797"/>
      <use xlink:href="#DejaVuSerif-6e" x="894.046875"/>
      <use xlink:href="#DejaVuSerif-73" x="958.451172"/>
      <use xlink:href="#DejaVuSerif-29" x="1009.769531"/>
     </g>
    </g>
   </g>
   <g id="patch_3">
    <path d="M 82.652898 359.517187 
L 137.165788 359.517187 
L 137.165788 239.239795 
L 82.652898 239.239795 
z
" clip-path="url(#p1833425d7f)" style="fill: #008080; opacity: 0.6; stroke: #ffffff; stroke-width: 0.8; stroke-linejoin: miter"/>
   </g>
   <g id="patch_4">
    <path d="M 143.979899 359.517187 
L 198.492789 359.517187 
L 198.492789 64.894163 
L 143.979899 64.894163 
z
" clip-path="url(#p1833425d7f)" style="fill: #008080; opacity: 0.6; stroke: #ffffff; stroke-width: 0.8; stroke-linejoin: miter"/>
   </g>
   <g id="patch_5">
    <path d="M 212.121012 359.517187 
L 266.633902 359.517187 
L 266.633902 41.850363 
L 212.121012 41.850363 
z
" clip-path="url(#p1833425d7f)" style="fill: #008080; opacity: 0.6; stroke: #ffffff; stroke-width: 0.8; stroke-linejoin: miter"/>
   </g>
   <g id="patch_6">
    <path d="M 280.262124 359.517187 
L 334.775014 359.517187 
L 334.775014 45.899064 
L 280.262124 45.899064 
z
" clip-path="url(#p1833425d7f)" style="fill: #008080; opacity: 0.6; stroke: #ffffff; stroke-width: 0.8; stroke-linejoin: miter"/>
   </g>
   <g id="patch_7">
    <path d="M 348.403237 359.517187 
L 402.916127 359.517187 
L 402.916127 54.232591 
L 348.403237 54.232591 
z
" clip-path="url(#p1833425d7f)" style="fill: #008080; opacity: 0.6; stroke: #ffffff; stroke-width: 0.8; stroke-linejoin: miter"/>
   </g>
   <g id="patch_8">
    <path d="M 416.54435 359.517187 
L 471.05724 359.517187 
L 471.05724 123.415285 
L 416.54435 123.415285 
z
" clip-path="url(#p1833425d7f)" style="fill: #008080; opacity: 0.6; stroke: #ffffff; stroke-width: 0.8; stroke-linejoin: miter"/>
   </g>
   <g id="patch_9">
    <path d="M 484.685462 359.517187 
L 539.198352 359.517187 
L 539.198352 164.635335 
L 484.685462 164.635335 
z
" clip-path="url(#p1833425d7f)" style="fill: #008080; opacity: 0.6; stroke: #ffffff; stroke-width: 0.8; stroke-linejoin: miter"/>
   </g>
   <g id="patch_10">
    <path d="M 59.825625 359.517187 
L 59.825625 26.877188 
" style="fill: none; stroke: #262626; stroke-linejoin: miter; stroke-linecap: square"/>
   </g>
   <g id="patch_11">
    <path d="M 562.025625 359.517187 
L 562.025625 26.877188 
" style="fill: none; stroke: #262626; stroke-linejoin: miter; stroke-linecap: square"/>
   </g>
   <g id="patch_12">
    <path d="M 59.825625 359.517187 
L 562.025625 359.517187 
" style="fill: none; stroke: #262626; stroke-linejoin: miter; stroke-linecap: square"/>
   </g>
   <g id="patch_13">
    <path d="M 59.825625 26.877187 
L 562.025625 26.877187 
" style="fill: none; stroke: #262626; stroke-linejoin: miter; stroke-linecap: square"/>
   </g>
   <g id="text_16">
    <!-- Population pyramid for EU 2020 -->
    <g style="fill: #262626" transform="translate(163.057031 20.877187) scale(0.18 -0.18)">
     <defs>
      <path id="DejaVuSerif-79" d="M 1381 -609 
L 1600 -56 
L 359 2988 
L -19 2988 
L -19 3322 
L 1509 3322 
L 1509 2988 
L 978 2988 
L 1913 703 
L 2847 2988 
L 2350 2988 
L 2350 3322 
L 3597 3322 
L 3597 2988 
L 3225 2988 
L 1703 -750 
Q 1547 -1138 1356 -1280 
Q 1166 -1422 819 -1422 
Q 672 -1422 517 -1397 
Q 363 -1372 206 -1325 
L 206 -691 
L 500 -691 
Q 519 -903 608 -995 
Q 697 -1088 884 -1088 
Q 1056 -1088 1161 -992 
Q 1266 -897 1381 -609 
z
" transform="scale(0.015625)"/>
      <path id="DejaVuSerif-64" d="M 3359 331 
L 3909 331 
L 3909 0 
L 2784 0 
L 2784 519 
Q 2616 206 2355 57 
Q 2094 -91 1709 -91 
Q 1097 -91 708 395 
Q 319 881 319 1663 
Q 319 2444 706 2928 
Q 1094 3413 1709 3413 
Q 2094 3413 2355 3264 
Q 2616 3116 2784 2803 
L 2784 4531 
L 2241 4531 
L 2241 4863 
L 3359 4863 
L 3359 331 
z
M 2784 1497 
L 2784 1825 
Q 2784 2422 2554 2737 
Q 2325 3053 1888 3053 
Q 1444 3053 1217 2703 
Q 991 2353 991 1663 
Q 991 975 1217 622 
Q 1444 269 1888 269 
Q 2325 269 2554 583 
Q 2784 897 2784 1497 
z
" transform="scale(0.015625)"/>
      <path id="DejaVuSerif-66" d="M 2753 4078 
L 2450 4078 
Q 2447 4313 2317 4434 
Q 2188 4556 1941 4556 
Q 1619 4556 1487 4379 
Q 1356 4203 1356 3750 
L 1356 3322 
L 2284 3322 
L 2284 2988 
L 1356 2988 
L 1356 331 
L 2094 331 
L 2094 0 
L 231 0 
L 231 331 
L 781 331 
L 781 2988 
L 231 2988 
L 231 3322 
L 781 3322 
L 781 3738 
Q 781 4294 1070 4578 
Q 1359 4863 1919 4863 
Q 2128 4863 2337 4825 
Q 2547 4788 2753 4709 
L 2753 4078 
z
" transform="scale(0.015625)"/>
      <path id="DejaVuSerif-45" d="M 353 0 
L 353 331 
L 947 331 
L 947 4331 
L 353 4331 
L 353 4666 
L 4109 4666 
L 4109 3628 
L 3725 3628 
L 3725 4281 
L 1581 4281 
L 1581 2719 
L 3109 2719 
L 3109 3303 
L 3494 3303 
L 3494 1753 
L 3109 1753 
L 3109 2338 
L 1581 2338 
L 1581 384 
L 3775 384 
L 3775 1038 
L 4159 1038 
L 4159 0 
L 353 0 
z
" transform="scale(0.015625)"/>
      <path id="DejaVuSerif-55" d="M 897 4331 
L 300 4331 
L 300 4666 
L 2125 4666 
L 2125 4331 
L 1528 4331 
L 1528 1919 
Q 1528 1025 1820 672 
Q 2113 319 2828 319 
Q 3544 319 3836 672 
Q 4128 1025 4128 1919 
L 4128 4331 
L 3531 4331 
L 3531 4666 
L 5106 4666 
L 5106 4331 
L 4513 4331 
L 4513 1856 
Q 4513 791 4103 350 
Q 3694 -91 2713 -91 
Q 1731 -91 1314 353 
Q 897 797 897 1856 
L 897 4331 
z
" transform="scale(0.015625)"/>
     </defs>
     <use xlink:href="#DejaVuSerif-50"/>
     <use xlink:href="#DejaVuSerif-6f" x="63.285156"/>
     <use xlink:href="#DejaVuSerif-70" x="123.490234"/>
     <use xlink:href="#DejaVuSerif-75" x="187.503906"/>
     <use xlink:href="#DejaVuSerif-6c" x="251.908203"/>
     <use xlink:href="#DejaVuSerif-61" x="283.890625"/>
     <use xlink:href="#DejaVuSerif-74" x="343.509766"/>
     <use xlink:href="#DejaVuSerif-69" x="383.695312"/>
     <use xlink:href="#DejaVuSerif-6f" x="415.677734"/>
     <use xlink:href="#DejaVuSerif-6e" x="475.882812"/>
     <use xlink:href="#DejaVuSerif-20" x="540.287109"/>
     <use xlink:href="#DejaVuSerif-70" x="572.074219"/>
     <use xlink:href="#DejaVuSerif-79" x="636.087891"/>
     <use xlink:href="#DejaVuSerif-72" x="692.582031"/>
     <use xlink:href="#DejaVuSerif-61" x="740.384766"/>
     <use xlink:href="#DejaVuSerif-6d" x="800.003906"/>
     <use xlink:href="#DejaVuSerif-69" x="894.828125"/>
     <use xlink:href="#DejaVuSerif-64" x="926.810547"/>
     <use xlink:href="#DejaVuSerif-20" x="990.824219"/>
     <use xlink:href="#DejaVuSerif-66" x="1022.611328"/>
     <use xlink:href="#DejaVuSerif-6f" x="1059.623047"/>
     <use xlink:href="#DejaVuSerif-72" x="1119.828125"/>
     <use xlink:href="#DejaVuSerif-20" x="1167.630859"/>
     <use xlink:href="#DejaVuSerif-45" x="1199.417969"/>
     <use xlink:href="#DejaVuSerif-55" x="1272.416016"/>
     <use xlink:href="#DejaVuSerif-20" x="1356.693359"/>
     <use xlink:href="#DejaVuSerif-32" x="1388.480469"/>
     <use xlink:href="#DejaVuSerif-30" x="1452.103516"/>
     <use xlink:href="#DejaVuSerif-32" x="1515.726562"/>
     <use xlink:href="#DejaVuSerif-30" x="1579.349609"/>
    </g>
   </g>
  </g>
  <g id="axes_2">
   <g id="matplotlib.axis_3">
    <g id="ytick_7">
     <g id="line2d_7">
      <defs>
       <path id="m555c2abf17" d="M 0 0 
L 4.8 0 
" style="stroke: #262626"/>
      </defs>
      <g>
       <use xlink:href="#m555c2abf17" x="562.025625" y="359.517187" style="fill: #262626; stroke: #262626"/>
      </g>
     </g>
     <g id="text_17">
      <!-- 0 -->
      <g style="fill: #262626" transform="translate(570.325625 364.07625) scale(0.12 -0.12)">
       <use xlink:href="#DejaVuSerif-30"/>
      </g>
     </g>
    </g>
    <g id="ytick_8">
     <g id="line2d_8">
      <g>
       <use xlink:href="#m555c2abf17" x="562.025625" y="299.037187" style="fill: #262626; stroke: #262626"/>
      </g>
     </g>
     <g id="text_18">
      <!-- 20 -->
      <g style="fill: #262626" transform="translate(570.325625 303.59625) scale(0.12 -0.12)">
       <use xlink:href="#DejaVuSerif-32"/>
       <use xlink:href="#DejaVuSerif-30" x="63.623047"/>
      </g>
     </g>
    </g>
    <g id="ytick_9">
     <g id="line2d_9">
      <g>
       <use xlink:href="#m555c2abf17" x="562.025625" y="238.557187" style="fill: #262626; stroke: #262626"/>
      </g>
     </g>
     <g id="text_19">
      <!-- 40 -->
      <g style="fill: #262626" transform="translate(570.325625 243.11625) scale(0.12 -0.12)">
       <use xlink:href="#DejaVuSerif-34"/>
       <use xlink:href="#DejaVuSerif-30" x="63.623047"/>
      </g>
     </g>
    </g>
    <g id="ytick_10">
     <g id="line2d_10">
      <g>
       <use xlink:href="#m555c2abf17" x="562.025625" y="178.077188" style="fill: #262626; stroke: #262626"/>
      </g>
     </g>
     <g id="text_20">
      <!-- 60 -->
      <g style="fill: #262626" transform="translate(570.325625 182.63625) scale(0.12 -0.12)">
       <use xlink:href="#DejaVuSerif-36"/>
       <use xlink:href="#DejaVuSerif-30" x="63.623047"/>
      </g>
     </g>
    </g>
    <g id="ytick_11">
     <g id="line2d_11">
      <g>
       <use xlink:href="#m555c2abf17" x="562.025625" y="117.597188" style="fill: #262626; stroke: #262626"/>
      </g>
     </g>
     <g id="text_21">
      <!-- 80 -->
      <g style="fill: #262626" transform="translate(570.325625 122.15625) scale(0.12 -0.12)">
       <use xlink:href="#DejaVuSerif-38"/>
       <use xlink:href="#DejaVuSerif-30" x="63.623047"/>
      </g>
     </g>
    </g>
    <g id="ytick_12">
     <g id="line2d_12">
      <g>
       <use xlink:href="#m555c2abf17" x="562.025625" y="57.117188" style="fill: #262626; stroke: #262626"/>
      </g>
     </g>
     <g id="text_22">
      <!-- 100 -->
      <g style="fill: #262626" transform="translate(570.325625 61.67625) scale(0.12 -0.12)">
       <use xlink:href="#DejaVuSerif-31"/>
       <use xlink:href="#DejaVuSerif-30" x="63.623047"/>
       <use xlink:href="#DejaVuSerif-30" x="127.246094"/>
      </g>
     </g>
    </g>
    <g id="text_23">
     <!-- Percentage -->
     <g style="fill: #262626" transform="translate(610.651875 244.710937) rotate(-90) scale(0.18 -0.18)">
      <defs>
       <path id="DejaVuSerif-63" d="M 3291 997 
Q 3169 466 2822 187 
Q 2475 -91 1925 -91 
Q 1200 -91 759 389 
Q 319 869 319 1663 
Q 319 2459 759 2936 
Q 1200 3413 1925 3413 
Q 2241 3413 2553 3339 
Q 2866 3266 3181 3116 
L 3181 2266 
L 2847 2266 
Q 2781 2703 2561 2903 
Q 2341 3103 1931 3103 
Q 1466 3103 1228 2742 
Q 991 2381 991 1663 
Q 991 944 1227 581 
Q 1463 219 1931 219 
Q 2303 219 2525 412 
Q 2747 606 2828 997 
L 3291 997 
z
" transform="scale(0.015625)"/>
      </defs>
      <use xlink:href="#DejaVuSerif-50"/>
      <use xlink:href="#DejaVuSerif-65" x="62.785156"/>
      <use xlink:href="#DejaVuSerif-72" x="121.964844"/>
      <use xlink:href="#DejaVuSerif-63" x="169.767578"/>
      <use xlink:href="#DejaVuSerif-65" x="225.773438"/>
      <use xlink:href="#DejaVuSerif-6e" x="284.953125"/>
      <use xlink:href="#DejaVuSerif-74" x="349.357422"/>
      <use xlink:href="#DejaVuSerif-61" x="389.542969"/>
      <use xlink:href="#DejaVuSerif-67" x="449.162109"/>
      <use xlink:href="#DejaVuSerif-65" x="513.175781"/>
     </g>
    </g>
   </g>
   <g id="PathCollection_1">
    <defs>
     <path id="m77719f4345" d="M 0 2.4 
C 0.636487 2.4 1.246992 2.147121 1.697056 1.697056 
C 2.147121 1.246992 2.4 0.636487 2.4 0 
C 2.4 -0.636487 2.147121 -1.246992 1.697056 -1.697056 
C 1.246992 -2.147121 0.636487 -2.4 0 -2.4 
C -0.636487 -2.4 -1.246992 -2.147121 -1.697056 -1.697056 
C -2.147121 -1.246992 -2.4 -0.636487 -2.4 0 
C -2.4 0.636487 -2.147121 1.246992 -1.697056 1.697056 
C -1.246992 2.147121 -0.636487 2.4 0 2.4 
z
" style="stroke: #ff0000; stroke-width: 0.8"/>
    </defs>
    <g clip-path="url(#p1833425d7f)">
     <use xlink:href="#m77719f4345" x="116.723454" y="283.917187" style="fill: #ff0000; stroke: #ff0000; stroke-width: 0.8"/>
     <use xlink:href="#m77719f4345" x="171.236344" y="240.673988" style="fill: #ff0000; stroke: #ff0000; stroke-width: 0.8"/>
     <use xlink:href="#m77719f4345" x="239.377457" y="209.224387" style="fill: #ff0000; stroke: #ff0000; stroke-width: 0.8"/>
     <use xlink:href="#m77719f4345" x="307.518569" y="186.846788" style="fill: #ff0000; stroke: #ff0000; stroke-width: 0.8"/>
     <use xlink:href="#m77719f4345" x="375.659682" y="169.912387" style="fill: #ff0000; stroke: #ff0000; stroke-width: 0.8"/>
     <use xlink:href="#m77719f4345" x="443.800795" y="160.840387" style="fill: #ff0000; stroke: #ff0000; stroke-width: 0.8"/>
     <use xlink:href="#m77719f4345" x="518.756018" y="180.193988" style="fill: #ff0000; stroke: #ff0000; stroke-width: 0.8"/>
    </g>
   </g>
   <g id="PathCollection_2">
    <defs>
     <path id="m0d1e2e3c2e" d="M 0 2.4 
C 0.636487 2.4 1.246992 2.147121 1.697056 1.697056 
C 2.147121 1.246992 2.4 0.636487 2.4 0 
C 2.4 -0.636487 2.147121 -1.246992 1.697056 -1.697056 
C 1.246992 -2.147121 0.636487 -2.4 0 -2.4 
C -0.636487 -2.4 -1.246992 -2.147121 -1.697056 -1.697056 
C -2.147121 -1.246992 -2.4 -0.636487 -2.4 0 
C -2.4 0.636487 -2.147121 1.246992 -1.697056 1.697056 
C -1.246992 2.147121 -0.636487 2.4 0 2.4 
z
" style="stroke: #000000; stroke-width: 0.8"/>
    </defs>
    <g clip-path="url(#p1833425d7f)">
     <use xlink:href="#m0d1e2e3c2e" x="116.723454" y="63.165188" style="stroke: #000000; stroke-width: 0.8"/>
     <use xlink:href="#m0d1e2e3c2e" x="171.236344" y="63.165188" style="stroke: #000000; stroke-width: 0.8"/>
     <use xlink:href="#m0d1e2e3c2e" x="239.377457" y="63.165188" style="stroke: #000000; stroke-width: 0.8"/>
     <use xlink:href="#m0d1e2e3c2e" x="307.518569" y="72.237188" style="stroke: #000000; stroke-width: 0.8"/>
     <use xlink:href="#m0d1e2e3c2e" x="375.659682" y="96.429188" style="stroke: #000000; stroke-width: 0.8"/>
     <use xlink:href="#m0d1e2e3c2e" x="443.800795" y="162.957188" style="stroke: #000000; stroke-width: 0.8"/>
    </g>
   </g>
   <g id="line2d_13">
    <path d="M 116.723454 283.917187 
L 120.784389 279.873297 
L 124.845324 275.978713 
L 128.906259 272.228997 
L 132.967194 268.619711 
L 137.028129 265.146417 
L 141.089064 261.804677 
L 145.149999 258.590052 
L 149.210934 255.498106 
L 153.271869 252.524398 
L 157.332804 249.664493 
L 161.393739 246.91395 
L 165.454674 244.268333 
L 169.515609 241.723203 
L 173.576544 239.274122 
L 177.637479 236.916653 
L 181.698414 234.646356 
L 185.759349 232.458794 
L 189.820284 230.349529 
L 193.881219 228.314123 
L 197.942154 226.348137 
L 202.003089 224.447134 
L 206.064024 222.606675 
L 210.124959 220.822323 
L 214.185894 219.089639 
L 218.246829 217.404185 
L 222.307764 215.761523 
L 226.368699 214.157216 
L 230.429634 212.586824 
L 234.490569 211.04591 
L 238.551504 209.530035 
L 242.612439 208.03514 
L 246.673374 206.559982 
L 250.734309 205.104593 
L 254.795244 203.669013 
L 258.856179 202.253282 
L 262.917114 200.857439 
L 266.978049 199.481524 
L 271.038984 198.125575 
L 275.099919 196.789633 
L 279.160854 195.473737 
L 283.221789 194.177925 
L 287.282724 192.902238 
L 291.343659 191.646715 
L 295.404594 190.411396 
L 299.465529 189.196319 
L 303.526464 188.001524 
L 307.587399 186.827051 
L 311.648334 185.672874 
L 315.709269 184.538724 
L 319.770204 183.424273 
L 323.831139 182.329192 
L 327.892074 181.253153 
L 331.953009 180.195828 
L 336.013944 179.15689 
L 340.074879 178.13601 
L 344.135814 177.132859 
L 348.196749 176.14711 
L 352.257684 175.178435 
L 356.318619 174.226505 
L 360.379554 173.290993 
L 364.440489 172.37157 
L 368.501424 171.467908 
L 372.562359 170.579679 
L 376.623294 169.706565 
L 380.684229 168.849683 
L 384.745164 168.013032 
L 388.806099 167.200958 
L 392.867034 166.417806 
L 396.927969 165.667921 
L 400.988904 164.955649 
L 405.049839 164.285336 
L 409.110774 163.661326 
L 413.171709 163.087965 
L 417.232644 162.569599 
L 421.293579 162.110572 
L 425.354514 161.715231 
L 429.415449 161.387921 
L 433.476384 161.132987 
L 437.537319 160.954774 
L 441.598254 160.857628 
L 445.659189 160.845895 
L 449.720124 160.92392 
L 453.781059 161.096048 
L 457.841994 161.366624 
L 461.902929 161.739995 
L 465.963864 162.220505 
L 470.024799 162.812499 
L 474.085734 163.520325 
L 478.146669 164.348325 
L 482.207604 165.300847 
L 486.268539 166.382236 
L 490.329474 167.596836 
L 494.390409 168.948994 
L 498.451344 170.443054 
L 502.512279 172.083363 
L 506.573214 173.874265 
L 510.634148 175.820106 
L 514.695083 177.925232 
L 518.756018 180.193988 
" clip-path="url(#p1833425d7f)" style="fill: none; stroke: #ff0000; stroke-width: 2; stroke-linecap: round"/>
   </g>
   <g id="line2d_14">
    <path d="M 116.723454 63.165188 
L 120.027266 63.296347 
L 123.331077 63.40379 
L 126.634889 63.488922 
L 129.9387 63.553147 
L 133.242512 63.597872 
L 136.546323 63.624503 
L 139.850135 63.634443 
L 143.153946 63.629099 
L 146.457758 63.609877 
L 149.761569 63.578182 
L 153.065381 63.535418 
L 156.369192 63.482992 
L 159.673004 63.42231 
L 162.976815 63.354775 
L 166.280627 63.281795 
L 169.584438 63.204774 
L 172.88825 63.125118 
L 176.192061 63.044232 
L 179.495873 62.963522 
L 182.799684 62.884393 
L 186.103496 62.80825 
L 189.407307 62.736499 
L 192.711119 62.670546 
L 196.014931 62.611796 
L 199.318742 62.561654 
L 202.622554 62.521526 
L 205.926365 62.492817 
L 209.230177 62.476932 
L 212.533988 62.475278 
L 215.8378 62.489259 
L 219.141611 62.520281 
L 222.445423 62.56975 
L 225.749234 62.63907 
L 229.053046 62.729648 
L 232.356857 62.842888 
L 235.660669 62.980197 
L 238.96448 63.142979 
L 242.268292 63.332454 
L 245.572103 63.548754 
L 248.875915 63.79162 
L 252.179726 64.060791 
L 255.483538 64.356004 
L 258.787349 64.677 
L 262.091161 65.023518 
L 265.394972 65.395295 
L 268.698784 65.792072 
L 272.002596 66.213587 
L 275.306407 66.659579 
L 278.610219 67.129787 
L 281.91403 67.623951 
L 285.217842 68.141809 
L 288.521653 68.683099 
L 291.825465 69.247563 
L 295.129276 69.834937 
L 298.433088 70.444961 
L 301.736899 71.077375 
L 305.040711 71.731917 
L 308.344522 72.408336 
L 311.648334 73.107654 
L 314.952145 73.833362 
L 318.255957 74.589234 
L 321.559768 75.379045 
L 324.86358 76.206569 
L 328.167391 77.075581 
L 331.471203 77.989856 
L 334.775014 78.953169 
L 338.078826 79.969293 
L 341.382637 81.042003 
L 344.686449 82.175075 
L 347.990261 83.372282 
L 351.294072 84.6374 
L 354.597884 85.974203 
L 357.901695 87.386465 
L 361.205507 88.877961 
L 364.509318 90.452466 
L 367.81313 92.113755 
L 371.116941 93.865601 
L 374.420753 95.71178 
L 377.724564 97.656066 
L 381.028376 99.702234 
L 384.332187 101.854058 
L 387.635999 104.115313 
L 390.93981 106.489774 
L 394.243622 108.981215 
L 397.547433 111.593411 
L 400.851245 114.330136 
L 404.155056 117.195165 
L 407.458868 120.192273 
L 410.762679 123.325234 
L 414.066491 126.597823 
L 417.370302 130.013815 
L 420.674114 133.576983 
L 423.977925 137.291103 
L 427.281737 141.15995 
L 430.585549 145.187297 
L 433.88936 149.37692 
L 437.193172 153.732593 
L 440.496983 158.258091 
L 443.800795 162.957188 
" clip-path="url(#p1833425d7f)" style="fill: none; stroke: #1a1a1a; stroke-width: 2; stroke-linecap: round"/>
   </g>
   <g id="patch_14">
    <path d="M 59.825625 359.517187 
L 59.825625 26.877188 
" style="fill: none; stroke: #262626; stroke-linejoin: miter; stroke-linecap: square"/>
   </g>
   <g id="patch_15">
    <path d="M 562.025625 359.517187 
L 562.025625 26.877188 
" style="fill: none; stroke: #262626; stroke-linejoin: miter; stroke-linecap: square"/>
   </g>
   <g id="patch_16">
    <path d="M 59.825625 359.517187 
L 562.025625 359.517187 
" style="fill: none; stroke: #262626; stroke-linejoin: miter; stroke-linecap: square"/>
   </g>
   <g id="patch_17">
    <path d="M 59.825625 26.877187 
L 562.025625 26.877187 
" style="fill: none; stroke: #262626; stroke-linejoin: miter; stroke-linecap: square"/>
   </g>
   <g id="legend_1">
    <g id="patch_18">
     <path d="M 70.325625 352.017187 
L 386.710781 352.017187 
Q 389.710781 352.017187 389.710781 349.017187 
L 389.710781 306.05625 
Q 389.710781 303.05625 386.710781 303.05625 
L 70.325625 303.05625 
Q 67.325625 303.05625 67.325625 306.05625 
L 67.325625 349.017187 
Q 67.325625 352.017187 70.325625 352.017187 
z
" style="fill: #ffffff; opacity: 0.8; stroke: #cccccc; stroke-width: 0.8; stroke-linejoin: miter"/>
    </g>
    <g id="PathCollection_3">
     <g>
      <use xlink:href="#m77719f4345" x="88.325625" y="316.516406" style="fill: #ff0000; stroke: #ff0000; stroke-width: 0.8"/>
     </g>
    </g>
    <g id="text_24">
     <!-- Overweight percentage -->
     <g style="fill: #262626" transform="translate(115.325625 320.453906) scale(0.15 -0.15)">
      <defs>
       <path id="DejaVuSerif-4f" d="M 2625 244 
Q 3391 244 3781 770 
Q 4172 1297 4172 2328 
Q 4172 3363 3781 3889 
Q 3391 4416 2625 4416 
Q 1856 4416 1465 3889 
Q 1075 3363 1075 2328 
Q 1075 1297 1465 770 
Q 1856 244 2625 244 
z
M 2625 -91 
Q 2150 -91 1751 65 
Q 1353 222 1050 525 
Q 700 875 529 1319 
Q 359 1763 359 2328 
Q 359 2894 529 3339 
Q 700 3784 1050 4134 
Q 1356 4441 1750 4595 
Q 2144 4750 2625 4750 
Q 3641 4750 4266 4084 
Q 4891 3419 4891 2328 
Q 4891 1769 4719 1320 
Q 4547 872 4197 525 
Q 3891 219 3497 64 
Q 3103 -91 2625 -91 
z
" transform="scale(0.015625)"/>
       <path id="DejaVuSerif-76" d="M 1581 0 
L 359 2988 
L -19 2988 
L -19 3322 
L 1509 3322 
L 1509 2988 
L 978 2988 
L 1913 703 
L 2847 2988 
L 2350 2988 
L 2350 3322 
L 3597 3322 
L 3597 2988 
L 3225 2988 
L 2003 0 
L 1581 0 
z
" transform="scale(0.015625)"/>
       <path id="DejaVuSerif-77" d="M 3072 3322 
L 3922 728 
L 4672 2988 
L 4191 2988 
L 4191 3322 
L 5394 3322 
L 5394 2988 
L 5025 2988 
L 4038 0 
L 3559 0 
L 2741 2484 
L 1919 0 
L 1459 0 
L 475 2988 
L 103 2988 
L 103 3322 
L 1606 3322 
L 1606 2988 
L 1069 2988 
L 1813 728 
L 2669 3322 
L 3072 3322 
z
" transform="scale(0.015625)"/>
       <path id="DejaVuSerif-68" d="M 263 0 
L 263 331 
L 781 331 
L 781 4531 
L 231 4531 
L 231 4863 
L 1356 4863 
L 1356 2731 
Q 1516 3069 1770 3241 
Q 2025 3413 2363 3413 
Q 2913 3413 3172 3097 
Q 3431 2781 3431 2113 
L 3431 331 
L 3944 331 
L 3944 0 
L 2356 0 
L 2356 331 
L 2853 331 
L 2853 1931 
Q 2853 2541 2704 2764 
Q 2556 2988 2175 2988 
Q 1775 2988 1565 2697 
Q 1356 2406 1356 1850 
L 1356 331 
L 1856 331 
L 1856 0 
L 263 0 
z
" transform="scale(0.015625)"/>
      </defs>
      <use xlink:href="#DejaVuSerif-4f"/>
      <use xlink:href="#DejaVuSerif-76" x="81.982422"/>
      <use xlink:href="#DejaVuSerif-65" x="138.476562"/>
      <use xlink:href="#DejaVuSerif-72" x="197.65625"/>
      <use xlink:href="#DejaVuSerif-77" x="245.458984"/>
      <use xlink:href="#DejaVuSerif-65" x="331.054688"/>
      <use xlink:href="#DejaVuSerif-69" x="390.234375"/>
      <use xlink:href="#DejaVuSerif-67" x="422.216797"/>
      <use xlink:href="#DejaVuSerif-68" x="486.230469"/>
      <use xlink:href="#DejaVuSerif-74" x="550.634766"/>
      <use xlink:href="#DejaVuSerif-20" x="590.820312"/>
      <use xlink:href="#DejaVuSerif-70" x="622.607422"/>
      <use xlink:href="#DejaVuSerif-65" x="686.621094"/>
      <use xlink:href="#DejaVuSerif-72" x="745.800781"/>
      <use xlink:href="#DejaVuSerif-63" x="793.603516"/>
      <use xlink:href="#DejaVuSerif-65" x="849.609375"/>
      <use xlink:href="#DejaVuSerif-6e" x="908.789062"/>
      <use xlink:href="#DejaVuSerif-74" x="973.193359"/>
      <use xlink:href="#DejaVuSerif-61" x="1013.378906"/>
      <use xlink:href="#DejaVuSerif-67" x="1072.998047"/>
      <use xlink:href="#DejaVuSerif-65" x="1137.011719"/>
     </g>
    </g>
    <g id="PathCollection_4">
     <g>
      <use xlink:href="#m0d1e2e3c2e" x="88.325625" y="338.746875" style="stroke: #000000; stroke-width: 0.8"/>
     </g>
    </g>
    <g id="text_25">
     <!-- Smartphone ownership percentage -->
     <g style="fill: #262626" transform="translate(115.325625 342.684375) scale(0.15 -0.15)">
      <defs>
       <path id="DejaVuSerif-53" d="M 594 225 
L 594 1288 
L 953 1284 
Q 969 753 1261 498 
Q 1553 244 2150 244 
Q 2706 244 2998 464 
Q 3291 684 3291 1106 
Q 3291 1444 3114 1625 
Q 2938 1806 2369 1978 
L 1753 2163 
Q 1084 2366 811 2669 
Q 538 2972 538 3500 
Q 538 4094 959 4422 
Q 1381 4750 2144 4750 
Q 2469 4750 2856 4679 
Q 3244 4609 3681 4475 
L 3681 3481 
L 3328 3481 
Q 3275 3975 2998 4195 
Q 2722 4416 2156 4416 
Q 1663 4416 1405 4214 
Q 1147 4013 1147 3628 
Q 1147 3294 1340 3103 
Q 1534 2913 2163 2725 
L 2741 2553 
Q 3375 2363 3645 2067 
Q 3916 1772 3916 1275 
Q 3916 597 3481 253 
Q 3047 -91 2188 -91 
Q 1803 -91 1404 -12 
Q 1006 66 594 225 
z
" transform="scale(0.015625)"/>
      </defs>
      <use xlink:href="#DejaVuSerif-53"/>
      <use xlink:href="#DejaVuSerif-6d" x="68.505859"/>
      <use xlink:href="#DejaVuSerif-61" x="163.330078"/>
      <use xlink:href="#DejaVuSerif-72" x="222.949219"/>
      <use xlink:href="#DejaVuSerif-74" x="270.751953"/>
      <use xlink:href="#DejaVuSerif-70" x="310.9375"/>
      <use xlink:href="#DejaVuSerif-68" x="374.951172"/>
      <use xlink:href="#DejaVuSerif-6f" x="439.355469"/>
      <use xlink:href="#DejaVuSerif-6e" x="499.560547"/>
      <use xlink:href="#DejaVuSerif-65" x="563.964844"/>
      <use xlink:href="#DejaVuSerif-20" x="623.144531"/>
      <use xlink:href="#DejaVuSerif-6f" x="654.931641"/>
      <use xlink:href="#DejaVuSerif-77" x="715.136719"/>
      <use xlink:href="#DejaVuSerif-6e" x="800.732422"/>
      <use xlink:href="#DejaVuSerif-65" x="865.136719"/>
      <use xlink:href="#DejaVuSerif-72" x="924.316406"/>
      <use xlink:href="#DejaVuSerif-73" x="972.119141"/>
      <use xlink:href="#DejaVuSerif-68" x="1023.4375"/>
      <use xlink:href="#DejaVuSerif-69" x="1087.841797"/>
      <use xlink:href="#DejaVuSerif-70" x="1119.824219"/>
      <use xlink:href="#DejaVuSerif-20" x="1183.837891"/>
      <use xlink:href="#DejaVuSerif-70" x="1215.625"/>
      <use xlink:href="#DejaVuSerif-65" x="1279.638672"/>
      <use xlink:href="#DejaVuSerif-72" x="1338.818359"/>
      <use xlink:href="#DejaVuSerif-63" x="1386.621094"/>
      <use xlink:href="#DejaVuSerif-65" x="1442.626953"/>
      <use xlink:href="#DejaVuSerif-6e" x="1501.806641"/>
      <use xlink:href="#DejaVuSerif-74" x="1566.210938"/>
      <use xlink:href="#DejaVuSerif-61" x="1606.396484"/>
      <use xlink:href="#DejaVuSerif-67" x="1666.015625"/>
      <use xlink:href="#DejaVuSerif-65" x="1730.029297"/>
     </g>
    </g>
   </g>
  </g>
 </g>
 <defs>
  <clipPath id="p1833425d7f">
   <rect x="59.825625" y="26.877187" width="502.2" height="332.64"/>
  </clipPath>
 </defs>
</svg>
